<?xml version="1.0" encoding="UTF-8"?>
<!DOCTYPE svg PUBLIC "-//W3C//DTD SVG 1.1//EN" "http://www.w3.org/Graphics/SVG/1.1/DTD/svg11.dtd">
<!-- Creator: CorelDRAW X6 -->
<svg xmlns="http://www.w3.org/2000/svg" xml:space="preserve" width="0.174236in" height="0.166528in" version="1.1" style="fill:#d22856; shape-rendering:geometricPrecision; text-rendering:geometricPrecision; image-rendering:optimizeQuality; fill-rule:evenodd; clip-rule:evenodd"
viewBox="0 0 174 167"
 xmlns:xlink="http://www.w3.org/1999/xlink">
 <g id="__x0023_Layer_x0020_1">
  <metadata id="CorelCorpID_0Corel-Layer"/>
  <g id="_318306088">
   <path class="fil0" d="M87 167c-3,0 -6,-1 -8,-3 -53,-60 -64,-74 -67,-77l0 0c-7,-9 -11,-21 -11,-33 0,-29 24,-53 53,-53 13,0 25,4 35,12 10,-8 22,-12 34,-12 29,0 53,24 53,53 0,13 -4,24 -12,33l-68 77c-2,2 -5,3 -8,3l0 0zm-59 -93l0 0c3,4 34,39 59,67l60 -69c5,-5 7,-12 7,-19 0,-18 -15,-32 -32,-32 -10,0 -20,5 -26,13 -2,2 -5,4 -8,4 -3,0 -6,-2 -8,-4 -6,-8 -16,-13 -26,-13 -18,0 -32,15 -32,32 0,9 4,16 7,20 0,0 0,0 0,0z"/>
  </g>
 </g>
</svg>
